<svg width="1178" height="738" viewBox="0 0 1178 738" fill="none" xmlns="http://www.w3.org/2000/svg">
<path d="M149.904 54.9616C140.827 65.7995 131 85.1865 131 85.1865V568.03C131 568.03 132.685 602.742 142.171 622.812C148.466 636.131 153.735 643.061 163.653 654.549C173.771 666.268 180.864 671.906 193.299 681.751C210.158 695.1 220.247 702.37 240.13 711.976C263.298 723.169 277.843 727.621 303.717 732.378C340.671 739.171 363.157 737.876 400.388 732.378C430.534 727.926 447.468 723.387 475.146 711.976C503.462 700.302 518.828 691.74 542.171 673.439C558.127 660.93 579.12 637.925 579.12 637.925C579.12 637.925 613.433 668.133 635.404 673.439C657.375 678.745 670.285 679.941 692.977 681.751C721.384 684.018 737.6 683.925 766.016 681.751C789.375 679.964 802.601 678.579 825.307 673.439C849.005 668.075 861.55 662.758 884.169 654.549C900.83 648.502 926.274 637.925 926.274 637.925C926.274 637.925 969.733 675.885 1005.76 681.751C1023.53 684.645 1034.1 683.576 1052.02 681.765L1052.16 681.751C1068.9 680.059 1094.27 673.439 1094.27 673.439L1123.91 654.549L1158.28 617.523C1158.28 617.523 1179.49 569.952 1176.76 538.56C1174.76 515.604 1158.28 481.889 1158.28 481.889C1137.42 448.304 1055.25 427.454 1005.76 426.939V417.661C1005.76 417.661 994.292 396.298 985.565 383.28C975.144 367.732 970.097 358.17 955.92 345.121C939.549 330.053 927.955 322.759 906.51 314.14C872.826 300.602 812.848 303.939 812.848 303.939V285.049C812.848 285.049 814.428 265.627 812.848 253.313C810.743 236.911 807.611 227.727 800.388 212.509C794.163 199.395 789.372 192.449 780.195 180.773C768.158 165.46 760.211 157.288 744.104 145.259C731.858 136.112 723.679 132.472 710.162 124.857C694.071 115.79 685.802 109.137 668.057 102.944C650.15 96.6936 619.937 93.4984 619.937 93.4984H568.379C550.091 93.4984 539.563 90.7076 521.548 93.4984C507.861 95.6186 487.606 102.944 487.606 102.944L445.501 115.411L434.759 85.1865L412.848 54.9616C412.848 54.9616 392.707 35.6792 377.187 26.2479C358.272 14.754 346.226 9.04619 323.911 4.33484C298.588 -1.01141 282.794 0.952746 257.497 4.09876L255.597 4.33484C232.553 7.19602 218.662 8.41688 198.025 17.9361C175.945 28.1208 164.734 37.2555 149.904 54.9616Z" fill="#7B7ED0"/>
<path d="M131 85.1865C131 85.1865 140.827 65.7995 149.904 54.9616C164.734 37.2555 175.945 28.1208 198.025 17.9361C218.662 8.41688 232.553 7.19602 255.597 4.33484C282.017 1.05463 297.96 -1.14396 323.911 4.33484C346.226 9.04619 358.272 14.754 377.187 26.2479C392.707 35.6792 412.848 54.9616 412.848 54.9616L434.759 85.1865L445.501 115.411L487.606 102.944C487.606 102.944 507.861 95.6186 521.548 93.4984C539.563 90.7077 550.091 93.4984 568.379 93.4984C588.514 93.4984 619.937 93.4984 619.937 93.4984C619.937 93.4984 650.15 96.6936 668.057 102.944C685.802 109.137 694.071 115.79 710.162 124.857C723.679 132.472 731.858 136.112 744.104 145.259C760.211 157.288 768.158 165.46 780.195 180.773C789.372 192.449 794.163 199.395 800.388 212.509C807.611 227.727 810.743 236.911 812.848 253.313C814.428 265.627 812.848 285.049 812.848 285.049V303.939C812.848 303.939 872.826 300.602 906.51 314.14C927.955 322.759 939.549 330.053 955.92 345.121C970.097 358.17 975.144 367.732 985.565 383.28C994.291 396.298 1005.76 417.661 1005.76 417.661V443.73C1005.76 443.73 975.218 428.515 994.11 427.239C1041.12 424.064 1135.68 445.503 1158.28 481.889C1158.28 481.889 1174.76 515.604 1176.76 538.561C1179.49 569.952 1158.28 617.523 1158.28 617.523L1123.91 654.549C1112.33 661.926 1105.84 666.062 1094.27 673.439C1094.27 673.439 1068.9 680.059 1052.16 681.751C1034.16 683.571 1023.58 684.652 1005.76 681.751C969.733 675.885 926.274 637.925 926.274 637.925C926.274 637.925 900.83 648.502 884.169 654.549C861.55 662.758 849.005 668.075 825.308 673.439C802.601 678.579 789.375 679.964 766.016 681.751C737.6 683.925 721.384 684.018 692.977 681.751C670.285 679.941 657.375 678.745 635.404 673.439C613.433 668.133 579.12 637.925 579.12 637.925C579.12 637.925 558.127 660.93 542.171 673.439C518.828 691.74 503.462 700.302 475.146 711.976C447.468 723.387 430.534 727.926 400.388 732.378C363.157 737.876 340.671 739.171 303.717 732.378C277.843 727.621 263.298 723.169 240.13 711.976C220.247 702.37 210.158 695.1 193.299 681.751C180.864 671.906 173.771 666.268 163.653 654.549C153.735 643.061 148.466 636.131 142.171 622.812C132.685 602.742 131 568.03 131 568.03V85.1865Z" stroke="#FFFCFC" stroke-width="0.5"/>
<ellipse cx="215.5" cy="164" rx="215.5" ry="164" transform="matrix(-1 0 0 1 719 110)" fill="#9D9FD5"/>
<ellipse cx="246.637" cy="201.449" rx="246.637" ry="201.449" transform="matrix(-0.999498 0.0316889 0.0353421 0.999375 896.231 275.196)" fill="#9D9FD5"/>
<ellipse cx="140.954" cy="127.166" rx="140.954" ry="127.166" transform="matrix(-0.999498 0.0316889 0.0353421 0.999375 1052.29 429.384)" fill="#9D9FD5"/>
<ellipse cx="219" cy="192.5" rx="219" ry="192.5" transform="matrix(-1 0 0 1 531 341)" fill="#9D9FD5"/>
<ellipse cx="162" cy="149" rx="162" ry="149" transform="matrix(-1 0 0 1 417 31)" fill="#9D9FD5"/>
<path d="M376.334 356.973L93.946 153.881L95.999 562.599L376.334 356.973Z" fill="#9D9FD5"/>
<g opacity="0.7" filter="url(#filter0_d_18_7)">
<ellipse cx="56" cy="53.5" rx="56" ry="53.5" transform="matrix(-1 0 0 1 237 169)" fill="#3542B7"/>
</g>
<g opacity="0.7" filter="url(#filter1_d_18_7)">
<path d="M769.331 502.839C751.635 538.373 767.976 580.881 805.831 597.782C843.685 614.684 888.718 599.579 906.415 564.044C924.112 528.51 907.77 486.002 869.916 469.101C832.061 452.2 787.028 467.305 769.331 502.839Z" fill="#E65B6C"/>
</g>
<path d="M598.586 342.295C622.301 286.602 757.704 311.844 757.704 311.844L779 309.561L770.964 306.135L762.526 302.709L747.257 297.761L736.006 294.716L717.523 290.149L719.934 273.782L717.523 261.602V249.041L713.906 234.577L706.674 219.733L698.637 204.889H694.619H673.725C673.725 204.889 647.875 202.889 631.535 204.889C610.562 207.454 592.725 217.652 579.701 219.733L546.35 225.062C533.326 227.143 522.107 237.896 508.982 249.041C499.472 257.117 492.092 260.832 486.882 271.879C480.161 286.129 484.971 296.342 486.882 311.844C488.675 326.385 500.426 334.44 495.722 348.385C492.328 358.446 486.443 362.834 477.64 369.319C455.894 385.339 432.486 364.025 407.323 374.648C386.071 383.619 374.676 392.757 361.918 411.188C353.274 423.676 349.538 431.906 346.65 446.586C344.034 459.884 350.351 468.159 346.65 481.223C343.885 490.982 341.4 496.66 334.595 504.441C320.055 521.067 302.401 520.142 279.949 523.853C259.08 527.303 246.55 520.285 225.704 523.853C207.733 526.929 197.386 529.778 181.505 538.317C168.482 545.319 161.055 549.957 151.369 560.774C141.331 571.983 141.256 581.765 132.483 593.888C125.985 602.869 114 615.584 114 615.584L126.858 636.899L138.109 650.602L151.369 664.304L166.236 678.387L178.29 686L185.121 678.387C185.121 678.387 226.731 606.583 273.921 590.463C328.202 571.92 367.66 642.102 418.976 617.107C450.248 601.875 472.279 585.32 477.64 552.4C482.826 520.565 442.125 507.984 445.094 475.894C450.821 413.981 577.672 470.097 598.586 411.188C607.64 385.687 587.962 367.246 598.586 342.295Z" fill="#B2B1DE" stroke="#9D9FD5" stroke-width="0.5"/>
<path d="M497.814 140.99C503.629 129.948 515.867 114.417 515.867 114.417L519.076 111L540.74 112.518L562.403 116.694L583.264 122.389L606.933 131.12L624.585 139.851L645.446 151.24L659.487 162.249L671.522 172.499L681.151 183.508L689.575 193.758L698 206.285C698 206.285 683.327 206.514 673.93 206.285C659.49 205.934 651.387 202.583 637.022 204.008C637.022 204.008 620.955 206.857 610.945 209.702C602.164 212.198 588.881 217.294 588.881 217.294L566.816 222.609C566.816 222.609 551.459 223.615 542.344 226.785C526.815 232.185 523.276 243.77 508.646 251.081C505.114 252.846 502.64 253.021 499.419 255.257C496.291 257.427 494.985 259.196 492.599 262.09C489.144 266.279 487.425 268.91 485.378 273.858C483.159 279.219 482.673 282.547 482.168 288.284C481.329 297.813 483.973 303.111 485.378 312.58C487.762 328.654 500.495 339.169 492.599 353.579C490.435 357.527 488.552 359.41 485.378 362.69C481.475 366.721 474.145 371.801 474.145 371.801L463.714 374.838C463.714 374.838 453.658 375.438 447.266 374.838C440.906 374.24 437.586 372.325 431.219 371.801C426.225 371.39 418.382 371.801 418.382 371.801L407.951 374.838L387.491 385.088C387.491 385.088 377.865 390.422 372.648 394.958C361.568 404.591 352.589 426.087 352.589 426.087C352.589 426.087 345.13 441.198 344.967 451.522C344.84 459.517 348.978 471.642 348.978 471.642C348.978 471.642 346.797 483.645 343.362 490.623C338.876 499.734 335.594 505.328 326.914 511.122C319.542 516.043 313.911 516.324 305.25 518.715C294.366 521.719 276.767 524.029 276.767 524.029C276.767 524.029 263.507 524.954 255.104 524.029C250.037 523.472 247.352 522.121 242.266 521.752C233.624 521.123 220.201 524.029 220.201 524.029L195.329 532.001L176.875 539.974L163.235 551.362L152.403 558.575L146.385 568.066L139.565 578.695L133.949 589.325L126.728 599.195L113.489 614L109.076 606.028L104.262 593.88L100.25 578.695C100.25 578.695 90.9146 562.068 93.4304 551.362C95.5147 542.492 102.74 540.112 107.07 532.001C113.553 519.859 109.762 510.059 117.501 498.595C125.514 486.724 132.326 479.687 146.385 475.058C158.963 470.917 167.199 474.211 180.485 475.058C197.729 476.158 207.03 483.27 224.213 481.512C253.041 478.562 275.647 469.475 287.198 444.309C295.311 426.631 285.666 414.176 287.198 394.958C289.183 370.046 286.71 354.134 298.832 331.94C328.824 277.025 429.025 345.485 460.505 291.321C473.594 268.8 469.591 252.123 474.145 226.785C476.749 212.295 476.567 203.881 480.162 189.582C482.583 179.953 487.785 165.286 487.785 165.286C487.785 165.286 493.013 150.107 497.814 140.99Z" fill="#DED6F4" fill-opacity="0.78" stroke="#FFFCFC" stroke-width="0.5"/>
<path d="M336.5 644L331.224 660.238H314.15L327.963 670.274L322.687 686.512L336.5 676.476L350.313 686.512L345.037 670.274L358.85 660.238H341.776L336.5 644Z" fill="#F0EDA5"/>
<path opacity="0.7" d="M190.5 475L184.55 493.311H165.297L180.873 504.628L174.924 522.939L190.5 511.622L206.076 522.939L200.127 504.628L215.703 493.311H196.45L190.5 475Z" fill="#FBFFFD"/>
<path opacity="0.7" d="M417 173L410.04 192.693H387.517L405.739 204.864L398.779 224.557L417 212.386L435.221 224.557L428.261 204.864L446.483 192.693H423.96L417 173Z" fill="#F0EDA5"/>
<path opacity="0.7" d="M354.5 277L349.224 292.893H332.15L345.963 302.715L340.687 318.607L354.5 308.785L368.313 318.607L363.037 302.715L376.85 292.893H359.776L354.5 277Z" fill="#FBFFFD"/>
<path opacity="0.7" d="M957.5 568L952.224 583.893H935.15L948.963 593.715L943.687 609.607L957.5 599.785L971.313 609.607L966.037 593.715L979.85 583.893H962.776L957.5 568Z" fill="#FBFFFD"/>
<path opacity="0.7" d="M679 614L673.612 630.238H656.175L670.281 640.274L664.893 656.512L679 646.476L693.107 656.512L687.719 640.274L701.825 630.238H684.388L679 614Z" fill="#FBFFFD"/>
<path opacity="0.7" d="M241 114L235.163 130.929L216.273 130.929L231.555 141.392L225.718 158.321L241 147.858L256.282 158.321L250.445 141.392L265.727 130.929L246.837 130.929L241 114Z" fill="#F0EDA5"/>
<path opacity="0.7" d="M801 361L795.836 375.856H779.126L792.645 385.038L787.481 399.894L801 390.712L814.519 399.894L809.355 385.038L822.874 375.856H806.164L801 361Z" fill="#F0EDA5"/>
<path opacity="0.7" d="M892.706 543.939C899.13 542.603 909.728 546.227 909.728 546.227L912.363 546.278L910.655 553.472L908.721 559.316L906.647 563.618L901.402 572.662C901.402 572.662 895.095 568.521 890.427 567.918C880.708 566.661 878.251 578.606 868.487 579.496C856.294 580.608 846.422 577.01 839.953 567.161C835.052 559.698 843.189 551.393 837.017 544.829C832.632 540.164 828.24 538.508 821.653 538.187C811.949 537.714 809.629 548.228 800.079 549.923C790.528 551.619 776.145 543.561 768.423 532.063C764.216 525.801 764.072 522.808 764.072 522.808L766.078 513.693L768.423 506.478L773.604 492.972L779.291 486.664C779.291 486.664 786.654 493.846 788.813 499.026C791.662 505.861 785.338 511.375 789.025 517.841C793.8 526.215 802.657 530.157 812.437 527.962C819.924 526.281 819.816 517.601 827.224 515.631C838.262 512.697 848.337 517.7 853.929 527.176C857.854 533.828 851.257 540.21 855.604 546.623C860.609 554.006 868.072 557.531 877.187 555.953C884.888 554.62 884.82 545.58 892.706 543.939Z" fill="#E67F8C" stroke="#E67F8C" stroke-width="0.5"/>
<path opacity="0.7" d="M887.027 535.647C894.768 534.347 894.709 525.29 902.636 523.682L910.766 518.959L912.282 525.895L913.127 534.212L912.903 542.901L911.351 552.496C911.351 552.496 905.014 548.318 900.323 547.693C890.556 546.39 888.075 558.345 878.26 559.193C866.004 560.252 856.086 556.603 849.594 546.707C844.674 539.209 852.861 530.926 846.664 524.322C842.261 519.63 837.849 517.951 831.228 517.6C821.476 517.082 819.134 527.604 809.533 529.26C799.933 530.915 786.175 522.895 786.239 512.001C786.259 508.679 788.633 507.085 788.464 503.766C788.26 499.772 786.035 497.945 784.152 494.357C782.249 490.729 778.772 485.319 778.772 485.319L787.365 478.602L793.715 474.673L802.904 469.47L801.394 472.578L798.584 478.363L797.355 485.463L798.454 497.07C803.245 505.481 812.144 509.47 821.975 507.315C829.502 505.665 829.402 496.969 836.849 495.03C847.946 492.14 858.067 497.197 863.679 506.715C867.618 513.396 860.98 519.76 865.343 526.203C870.367 533.622 877.865 537.187 887.027 535.647Z" fill="#EF96A1" stroke="#E67F8C" stroke-width="0.5"/>
<path opacity="0.7" d="M142.316 219.189C135.583 213.662 136.649 207.001 135.076 198.693C134.658 196.484 134.237 193 134.237 193L130.631 198.693C130.631 198.693 127.737 205.747 126.63 210.459C125.601 214.838 125.125 217.36 125.021 221.846C124.896 227.214 125.312 230.288 126.63 235.51C128.198 241.723 129.78 245.112 133.065 250.691C136.073 255.799 137.904 258.746 142.316 262.837C147.168 267.335 150.661 269.195 156.796 271.946C162.317 274.422 165.635 275.661 171.678 276.501C176.962 277.235 181.584 277.094 185.354 276.501L195.007 274.983L204.66 271.946L211.9 268.151L219.14 262.837L223.565 258.282L227.184 252.969L230 248.794V246.137C230 246.137 187.364 271.623 185.354 254.867C184.582 248.432 191.488 245.282 190.18 238.925C187.356 225.197 153.807 252.846 152.372 238.925C151.294 228.467 175.729 228.971 171.678 219.189C167.491 209.077 150.982 226.302 142.316 219.189Z" fill="#616DD6" stroke="#9396DB" stroke-width="0.5"/>
<g opacity="0.7" filter="url(#filter2_d_18_7)">
<ellipse cx="55.5" cy="53" rx="55.5" ry="53" transform="matrix(-1 0 0 1 288 575)" fill="#B735AA"/>
</g>
<ellipse opacity="0.7" cx="7" cy="6.5" rx="7" ry="6.5" transform="matrix(-1 0 0 1 246 587)" fill="#BC67B4"/>
<ellipse opacity="0.7" cx="4.5" cy="4" rx="4.5" ry="4" transform="matrix(-1 0 0 1 234 674)" fill="#BC67B4"/>
<circle opacity="0.7" cx="4.5" cy="4.5" r="4.5" transform="matrix(-1 0 0 1 212 702)" fill="#BC67B4"/>
<ellipse cx="4" cy="3.5" rx="4" ry="3.5" transform="matrix(-1 0 0 1 232 658)" fill="#BC67B4"/>
<circle opacity="0.7" cx="13.5" cy="13.5" r="13.5" transform="matrix(-1 0 0 1 265 614)" fill="#BC67B4"/>
<g filter="url(#filter3_i_18_7)">
<path d="M543.688 247.829L570.496 255.129C570.496 255.129 553.671 258.749 543.688 263.048C532.507 267.865 525.931 270.903 517.146 279.033C502.985 292.14 494.446 303.344 494.713 322.092C494.869 333.04 497.148 339.553 502.955 349.021C508.233 357.626 511.187 362.178 521.251 367.706C531.315 373.234 538.843 373.133 550.478 373.177C565.44 373.233 573.639 369.382 587.665 364.45C597.578 360.965 612.22 353.644 612.22 353.644L603.512 369.699C603.512 369.699 593.37 381.991 585.321 388.399C576.057 395.774 570.382 400.152 558.898 403.847C545.046 408.304 536.1 407.004 521.664 405.719C509.454 404.633 502.248 403.898 491.138 399.292C478.794 394.174 471.832 389.943 463.489 380.14C455.765 371.064 453.542 364.34 450.229 353.128C446.651 341.016 445.419 333.591 446.892 320.984C448.391 308.16 450.861 300.649 457.925 289.392C465.59 277.179 472.183 271.01 484.806 263.048C493.843 257.348 510.042 251.942 510.042 251.942L543.688 247.829Z" fill="#F0EDA5"/>
</g>
<path d="M543.688 247.829L570.496 255.129C570.496 255.129 553.671 258.749 543.688 263.048C532.507 267.865 525.931 270.903 517.146 279.033C502.985 292.14 494.446 303.344 494.713 322.092C494.869 333.04 497.148 339.553 502.955 349.021C508.233 357.626 511.187 362.178 521.251 367.706C531.315 373.234 538.843 373.133 550.478 373.177C565.44 373.233 573.639 369.382 587.665 364.45C597.578 360.965 612.22 353.644 612.22 353.644L603.512 369.699C603.512 369.699 593.37 381.991 585.321 388.399C576.057 395.774 570.382 400.152 558.898 403.847C545.046 408.304 536.1 407.004 521.664 405.719C509.454 404.633 502.248 403.898 491.138 399.292C478.794 394.174 471.832 389.943 463.489 380.14C455.765 371.064 453.542 364.34 450.229 353.128C446.651 341.016 445.419 333.591 446.892 320.984C448.391 308.16 450.861 300.649 457.925 289.392C465.59 277.179 472.183 271.01 484.806 263.048C493.843 257.348 510.042 251.942 510.042 251.942L543.688 247.829Z" stroke="#FFFCFC" stroke-width="0.5"/>
<defs>
<filter id="filter0_d_18_7" x="121" y="169" width="120" height="115" filterUnits="userSpaceOnUse" color-interpolation-filters="sRGB">
<feFlood flood-opacity="0" result="BackgroundImageFix"/>
<feColorMatrix in="SourceAlpha" type="matrix" values="0 0 0 0 0 0 0 0 0 0 0 0 0 0 0 0 0 0 127 0" result="hardAlpha"/>
<feOffset dy="4"/>
<feGaussianBlur stdDeviation="2"/>
<feComposite in2="hardAlpha" operator="out"/>
<feColorMatrix type="matrix" values="0 0 0 0 0 0 0 0 0 0 0 0 0 0 0 0 0 0 0.25 0"/>
<feBlend mode="normal" in2="BackgroundImageFix" result="effect1_dropShadow_18_7"/>
<feBlend mode="normal" in="SourceGraphic" in2="effect1_dropShadow_18_7" result="shape"/>
</filter>
<filter id="filter1_d_18_7" x="758.193" y="462.177" width="159.36" height="150.529" filterUnits="userSpaceOnUse" color-interpolation-filters="sRGB">
<feFlood flood-opacity="0" result="BackgroundImageFix"/>
<feColorMatrix in="SourceAlpha" type="matrix" values="0 0 0 0 0 0 0 0 0 0 0 0 0 0 0 0 0 0 127 0" result="hardAlpha"/>
<feOffset dy="4"/>
<feGaussianBlur stdDeviation="2"/>
<feComposite in2="hardAlpha" operator="out"/>
<feColorMatrix type="matrix" values="0 0 0 0 0 0 0 0 0 0 0 0 0 0 0 0 0 0 0.25 0"/>
<feBlend mode="normal" in2="BackgroundImageFix" result="effect1_dropShadow_18_7"/>
<feBlend mode="normal" in="SourceGraphic" in2="effect1_dropShadow_18_7" result="shape"/>
</filter>
<filter id="filter2_d_18_7" x="173" y="575" width="119" height="114" filterUnits="userSpaceOnUse" color-interpolation-filters="sRGB">
<feFlood flood-opacity="0" result="BackgroundImageFix"/>
<feColorMatrix in="SourceAlpha" type="matrix" values="0 0 0 0 0 0 0 0 0 0 0 0 0 0 0 0 0 0 127 0" result="hardAlpha"/>
<feOffset dy="4"/>
<feGaussianBlur stdDeviation="2"/>
<feComposite in2="hardAlpha" operator="out"/>
<feColorMatrix type="matrix" values="0 0 0 0 0 0 0 0 0 0 0 0 0 0 0 0 0 0 0.25 0"/>
<feBlend mode="normal" in2="BackgroundImageFix" result="effect1_dropShadow_18_7"/>
<feBlend mode="normal" in="SourceGraphic" in2="effect1_dropShadow_18_7" result="shape"/>
</filter>
<filter id="filter3_i_18_7" x="446.029" y="247.579" width="166.797" height="163.609" filterUnits="userSpaceOnUse" color-interpolation-filters="sRGB">
<feFlood flood-opacity="0" result="BackgroundImageFix"/>
<feBlend mode="normal" in="SourceGraphic" in2="BackgroundImageFix" result="shape"/>
<feColorMatrix in="SourceAlpha" type="matrix" values="0 0 0 0 0 0 0 0 0 0 0 0 0 0 0 0 0 0 127 0" result="hardAlpha"/>
<feOffset dy="4"/>
<feGaussianBlur stdDeviation="2"/>
<feComposite in2="hardAlpha" operator="arithmetic" k2="-1" k3="1"/>
<feColorMatrix type="matrix" values="0 0 0 0 0 0 0 0 0 0 0 0 0 0 0 0 0 0 0.25 0"/>
<feBlend mode="normal" in2="shape" result="effect1_innerShadow_18_7"/>
</filter>
</defs>
</svg>
