<svg width="1420" height="1013" viewBox="0 0 1420 1013" fill="none" xmlns="http://www.w3.org/2000/svg">
<g filter="url(#filter0_i_18_11)">
<path d="M1281.43 75.1239C1292.75 90.0112 1305 116.642 1305 116.642V779.896C1305 779.896 1302.9 827.577 1291.07 855.147C1283.23 873.442 1276.66 882.962 1264.29 898.742C1251.68 914.839 1242.84 922.584 1227.34 936.108C1206.32 954.444 1193.74 964.431 1168.95 977.626C1140.07 993.001 1121.94 999.117 1089.68 1005.65C1043.61 1014.98 1015.58 1013.2 969.167 1005.65C931.585 999.535 910.473 993.3 875.969 977.626C840.669 961.591 821.513 949.829 792.412 924.69C772.52 907.507 746.349 875.906 746.349 875.906C746.349 875.906 703.573 917.402 676.183 924.69C648.793 931.979 632.698 933.621 604.41 936.108C568.996 939.221 548.78 939.094 513.354 936.108C484.234 933.653 467.746 931.751 439.439 924.69C409.897 917.322 394.257 910.018 366.059 898.742C345.288 890.435 313.568 875.906 313.568 875.906C313.568 875.906 259.39 928.051 214.479 936.108C192.323 940.083 179.143 938.615 156.805 936.127L156.632 936.108C135.76 933.784 104.141 924.69 104.141 924.69L67.1833 898.742L24.3338 847.882C24.3338 847.882 -2.09871 782.536 1.30212 739.415C3.78912 707.882 24.3338 661.569 24.3338 661.569C50.3441 615.436 152.775 586.795 214.479 586.088V573.342C214.479 573.342 228.774 543.998 239.653 526.115C252.645 504.759 258.936 491.624 276.611 473.699C297.019 453.001 311.474 442.982 338.207 431.143C380.2 412.546 454.972 417.13 454.972 417.13V391.181C454.972 391.181 453.002 364.503 454.972 347.587C457.596 325.058 461.5 312.441 470.505 291.538C478.265 273.523 484.237 263.982 495.679 247.943C510.685 226.909 520.591 215.684 540.671 199.16C555.938 186.596 566.135 181.596 582.985 171.135C603.045 158.681 613.354 149.542 635.476 141.034C657.8 132.449 695.465 128.06 695.465 128.06H759.739C782.539 128.06 795.663 124.226 818.122 128.06C835.184 130.972 860.436 141.034 860.436 141.034L912.927 158.16L926.317 116.642L953.634 75.1239C953.634 75.1239 978.742 48.6368 998.09 35.6816C1021.67 19.8931 1036.69 12.0526 1064.51 5.58087C1096.08 -1.76294 1115.77 0.935078 1147.3 5.25656L1149.67 5.58087C1178.4 9.51111 1195.72 11.1881 1221.44 24.2641C1248.97 38.2542 1262.95 50.8021 1281.43 75.1239Z" fill="#7B7ED0"/>
</g>
<path d="M1281.43 75.1239C1292.75 90.0112 1305 116.642 1305 116.642V779.896C1305 779.896 1302.9 827.577 1291.07 855.147C1283.23 873.442 1276.66 882.962 1264.29 898.742C1251.68 914.839 1242.84 922.584 1227.34 936.108C1206.32 954.444 1193.74 964.431 1168.95 977.626C1140.07 993.001 1121.94 999.117 1089.68 1005.65C1043.61 1014.98 1015.58 1013.2 969.167 1005.65C931.585 999.535 910.473 993.3 875.969 977.626C840.669 961.591 821.513 949.829 792.412 924.69C772.52 907.507 746.349 875.906 746.349 875.906C746.349 875.906 703.573 917.402 676.183 924.69C648.793 931.979 632.698 933.621 604.41 936.108C568.996 939.221 548.78 939.094 513.354 936.108C484.234 933.653 467.746 931.751 439.439 924.69C409.897 917.322 394.257 910.018 366.059 898.742C345.288 890.435 313.568 875.906 313.568 875.906C313.568 875.906 259.39 928.051 214.479 936.108C192.323 940.083 179.143 938.615 156.805 936.127L156.632 936.108C135.76 933.784 104.141 924.69 104.141 924.69L67.1833 898.742L24.3338 847.882C24.3338 847.882 -2.09871 782.536 1.30212 739.415C3.78912 707.882 24.3338 661.569 24.3338 661.569C50.3441 615.436 152.775 586.795 214.479 586.088V573.342C214.479 573.342 228.774 543.998 239.653 526.115C252.645 504.759 258.936 491.624 276.611 473.699C297.019 453.001 311.474 442.982 338.207 431.143C380.2 412.546 454.972 417.13 454.972 417.13V391.181C454.972 391.181 453.002 364.503 454.972 347.587C457.596 325.058 461.5 312.441 470.505 291.538C478.265 273.523 484.237 263.982 495.679 247.943C510.685 226.909 520.591 215.684 540.671 199.16C555.938 186.596 566.135 181.596 582.985 171.135C603.045 158.681 613.354 149.542 635.476 141.034C657.8 132.449 695.465 128.06 695.465 128.06H759.739C782.539 128.06 795.663 124.226 818.122 128.06C835.184 130.972 860.436 141.034 860.436 141.034L912.927 158.16L926.317 116.642L953.634 75.1239C953.634 75.1239 978.742 48.6368 998.09 35.6816C1021.67 19.8931 1036.69 12.0526 1064.51 5.58087C1096.08 -1.76294 1115.77 0.935078 1147.3 5.25656L1149.67 5.58087C1178.4 9.51111 1195.72 11.1881 1221.44 24.2641C1248.97 38.2542 1262.95 50.8021 1281.43 75.1239Z" stroke="#7B7ED0" stroke-width="0.5"/>
<ellipse cx="279.227" cy="725.2" rx="175.723" ry="167.413" transform="rotate(1.91781 279.227 725.2)" fill="#9D9FD5"/>
<ellipse cx="794" cy="355" rx="269" ry="216" fill="#9D9FD5"/>
<ellipse cx="602.178" cy="631.347" rx="307.475" ry="265.205" transform="rotate(1.91781 602.178 631.347)" fill="#9D9FD5"/>
<ellipse cx="1031" cy="695.5" rx="273" ry="253.5" fill="#9D9FD5"/>
<path d="M950.608 399.954L1302.63 132.568L1300.07 670.676L950.608 399.954Z" fill="#9D9FD5"/>
<ellipse cx="1102.5" cy="230.5" rx="201.5" ry="196.5" fill="#9D9FD5"/>
<g filter="url(#filter1_d_18_11)">
<ellipse cx="1195.5" cy="286" rx="69.5" ry="70" fill="#3542B7"/>
</g>
<g filter="url(#filter2_d_18_11)">
<path d="M586.944 640.709C609.005 687.493 588.634 743.457 541.444 765.709C494.255 787.961 438.116 768.074 416.056 721.291C393.995 674.507 414.366 618.543 461.556 596.291C508.745 574.039 564.884 593.926 586.944 640.709Z" fill="#E65B6C" fill-opacity="0.7" shape-rendering="crispEdges"/>
</g>
<g filter="url(#filter3_b_18_11)">
<path d="M675 444.5C645.491 371.341 477 404.5 477 404.5L450.5 401.5L460.5 397L471 392.5L490 386L504 382L527 376L524 354.5L527 338.5V322L531.5 303L540.5 283.5L550.5 264H555.5H581.5C581.5 264 613.666 261.374 634 264C660.098 267.371 682.293 280.766 698.5 283.5L740 290.5C756.207 293.234 770.168 307.359 786.5 322C798.334 332.609 807.517 337.489 814 352C822.364 370.719 816.378 384.136 814 404.5C811.769 423.601 797.146 434.181 803 452.5C807.224 465.718 814.546 471.482 825.5 480C852.56 501.044 881.688 473.046 913 487C939.445 498.785 953.625 510.788 969.5 535C980.256 551.405 984.906 562.215 988.5 581.5C991.755 598.968 983.894 609.838 988.5 627C991.941 639.82 995.032 647.278 1003.5 657.5C1021.59 679.34 1043.56 678.125 1071.5 683C1097.47 687.531 1113.06 678.313 1139 683C1161.36 687.04 1174.24 690.783 1194 702C1210.2 711.198 1219.45 717.29 1231.5 731.5C1243.99 746.225 1244.08 759.074 1255 775C1263.09 786.797 1278 803.5 1278 803.5L1262 831.5L1248 849.5L1231.5 867.5L1213 886L1198 896L1189.5 886C1189.5 886 1137.72 791.676 1079 770.5C1011.46 746.142 962.356 838.334 898.5 805.5C859.587 785.491 832.172 763.745 825.5 720.5C819.048 678.68 869.694 662.153 866 620C858.873 538.669 701.025 612.384 675 535C663.734 501.501 688.221 477.276 675 444.5Z" fill="#BCBEE7"/>
<path d="M675 444.5C645.491 371.341 477 404.5 477 404.5L450.5 401.5L460.5 397L471 392.5L490 386L504 382L527 376L524 354.5L527 338.5V322L531.5 303L540.5 283.5L550.5 264H555.5H581.5C581.5 264 613.666 261.374 634 264C660.098 267.371 682.293 280.766 698.5 283.5L740 290.5C756.207 293.234 770.168 307.359 786.5 322C798.334 332.609 807.517 337.489 814 352C822.364 370.719 816.378 384.136 814 404.5C811.769 423.601 797.146 434.181 803 452.5C807.224 465.718 814.546 471.482 825.5 480C852.56 501.044 881.688 473.046 913 487C939.445 498.785 953.625 510.788 969.5 535C980.256 551.405 984.906 562.215 988.5 581.5C991.755 598.968 983.894 609.838 988.5 627C991.941 639.82 995.032 647.278 1003.5 657.5C1021.59 679.34 1043.56 678.125 1071.5 683C1097.47 687.531 1113.06 678.313 1139 683C1161.36 687.04 1174.24 690.783 1194 702C1210.2 711.198 1219.45 717.29 1231.5 731.5C1243.99 746.225 1244.08 759.074 1255 775C1263.09 786.797 1278 803.5 1278 803.5L1262 831.5L1248 849.5L1231.5 867.5L1213 886L1198 896L1189.5 886C1189.5 886 1137.72 791.676 1079 770.5C1011.46 746.142 962.356 838.334 898.5 805.5C859.587 785.491 832.172 763.745 825.5 720.5C819.048 678.68 869.694 662.153 866 620C858.873 538.669 701.025 612.384 675 535C663.734 501.501 688.221 477.276 675 444.5Z" stroke="#9D9FD5" stroke-width="0.5"/>
</g>
<g filter="url(#filter4_b_18_11)">
<path d="M799.5 179.5C792.252 164.957 777 144.5 777 144.5L773 140L746 142L719 147.5L693 155L663.5 166.5L641.5 178L615.5 193L598 207.5L583 221L571 235.5L560.5 249L550 265.5C550 265.5 568.288 265.801 580 265.5C597.996 265.038 608.096 260.624 626 262.5C626 262.5 646.025 266.253 658.5 270C669.444 273.287 686 280 686 280L713.5 287C713.5 287 732.64 288.326 744 292.5C763.355 299.612 767.766 314.872 786 324.5C790.402 326.825 793.486 327.056 797.5 330C801.398 332.859 803.026 335.189 806 339C810.306 344.518 812.448 347.982 815 354.5C817.765 361.561 818.37 365.944 819 373.5C820.046 386.051 816.751 393.028 815 405.5C812.028 426.672 796.159 440.521 806 459.5C808.696 464.7 811.043 467.18 815 471.5C819.864 476.81 829 483.5 829 483.5L842 487.5C842 487.5 854.533 488.291 862.5 487.5C870.426 486.713 874.565 484.19 882.5 483.5C888.725 482.959 898.5 483.5 898.5 483.5L911.5 487.5L937 501C937 501 948.998 508.026 955.5 514C969.31 526.688 980.5 555 980.5 555C980.5 555 989.796 574.903 990 588.5C990.158 599.03 985 615 985 615C985 615 987.719 630.81 992 640C997.59 652.001 1001.68 659.369 1012.5 667C1021.69 673.481 1028.71 673.851 1039.5 677C1053.07 680.957 1075 684 1075 684C1075 684 1091.53 685.217 1102 684C1108.31 683.266 1111.66 681.487 1118 681C1128.77 680.172 1145.5 684 1145.5 684L1176.5 694.5L1199.5 705L1216.5 720L1230 729.5L1237.5 742L1246 756L1253 770L1262 783L1278.5 802.5L1284 792L1290 776L1295 756C1295 756 1306.64 734.101 1303.5 720C1300.9 708.317 1291.9 705.183 1286.5 694.5C1278.42 678.508 1283.15 665.6 1273.5 650.5C1263.51 634.865 1255.02 625.596 1237.5 619.5C1221.82 614.046 1211.56 618.384 1195 619.5C1173.51 620.949 1161.92 630.316 1140.5 628C1104.57 624.115 1076.4 612.147 1062 579C1051.89 555.717 1063.91 539.312 1062 514C1059.52 481.189 1062.61 460.231 1047.5 431C1010.12 358.671 885.235 448.84 846 377.5C829.687 347.838 834.675 325.873 829 292.5C825.755 273.415 825.981 262.333 821.5 243.5C818.482 230.818 812 211.5 812 211.5C812 211.5 805.484 191.508 799.5 179.5Z" fill="#DED6F4" fill-opacity="0.78"/>
<path d="M799.5 179.5C792.252 164.957 777 144.5 777 144.5L773 140L746 142L719 147.5L693 155L663.5 166.5L641.5 178L615.5 193L598 207.5L583 221L571 235.5L560.5 249L550 265.5C550 265.5 568.288 265.801 580 265.5C597.996 265.038 608.096 260.624 626 262.5C626 262.5 646.025 266.253 658.5 270C669.444 273.287 686 280 686 280L713.5 287C713.5 287 732.64 288.326 744 292.5C763.355 299.612 767.766 314.872 786 324.5C790.402 326.825 793.486 327.056 797.5 330C801.398 332.859 803.026 335.189 806 339C810.306 344.518 812.448 347.982 815 354.5C817.765 361.561 818.37 365.944 819 373.5C820.046 386.051 816.751 393.028 815 405.5C812.028 426.672 796.159 440.521 806 459.5C808.696 464.7 811.043 467.18 815 471.5C819.864 476.81 829 483.5 829 483.5L842 487.5C842 487.5 854.533 488.291 862.5 487.5C870.426 486.713 874.565 484.19 882.5 483.5C888.725 482.959 898.5 483.5 898.5 483.5L911.5 487.5L937 501C937 501 948.998 508.026 955.5 514C969.31 526.688 980.5 555 980.5 555C980.5 555 989.796 574.903 990 588.5C990.158 599.03 985 615 985 615C985 615 987.719 630.81 992 640C997.59 652.001 1001.68 659.369 1012.5 667C1021.69 673.481 1028.71 673.851 1039.5 677C1053.07 680.957 1075 684 1075 684C1075 684 1091.53 685.217 1102 684C1108.31 683.266 1111.66 681.487 1118 681C1128.77 680.172 1145.5 684 1145.5 684L1176.5 694.5L1199.5 705L1216.5 720L1230 729.5L1237.5 742L1246 756L1253 770L1262 783L1278.5 802.5L1284 792L1290 776L1295 756C1295 756 1306.64 734.101 1303.5 720C1300.9 708.317 1291.9 705.183 1286.5 694.5C1278.42 678.508 1283.15 665.6 1273.5 650.5C1263.51 634.865 1255.02 625.596 1237.5 619.5C1221.82 614.046 1211.56 618.384 1195 619.5C1173.51 620.949 1161.92 630.316 1140.5 628C1104.57 624.115 1076.4 612.147 1062 579C1051.89 555.717 1063.91 539.312 1062 514C1059.52 481.189 1062.61 460.231 1047.5 431C1010.12 358.671 885.235 448.84 846 377.5C829.687 347.838 834.675 325.873 829 292.5C825.755 273.415 825.981 262.333 821.5 243.5C818.482 230.818 812 211.5 812 211.5C812 211.5 805.484 191.508 799.5 179.5Z" stroke="#FFFCFC" stroke-width="0.5"/>
</g>
<g filter="url(#filter5_i_18_11)">
<path d="M794.683 189.474L828.101 199.085C828.101 199.085 807.127 203.85 794.683 209.511C780.744 215.852 772.546 219.851 761.595 230.556C743.942 247.811 733.297 262.563 733.63 287.247C733.825 301.66 736.665 310.235 743.905 322.7C750.484 334.029 754.167 340.022 766.712 347.3C779.258 354.579 788.643 354.446 803.147 354.504C821.798 354.577 832.02 349.507 849.504 343.014C861.862 338.425 880.114 328.787 880.114 328.787L869.259 349.924C869.259 349.924 856.616 366.108 846.582 374.545C835.034 384.254 827.959 390.019 813.643 394.883C796.375 400.751 785.223 399.04 767.227 397.348C752.006 395.917 743.023 394.95 729.174 388.886C713.785 382.148 705.107 376.577 694.707 363.671C685.078 351.721 682.307 342.869 678.177 328.107C673.716 312.161 672.18 302.386 674.017 285.788C675.885 268.904 678.964 259.015 687.771 244.194C697.325 228.115 705.544 219.993 721.28 209.511C732.545 202.006 752.74 194.888 752.74 194.888L794.683 189.474Z" fill="#F0EDA5"/>
</g>
<path d="M794.683 189.474L828.101 199.085C828.101 199.085 807.127 203.85 794.683 209.511C780.744 215.852 772.546 219.851 761.595 230.556C743.942 247.811 733.297 262.563 733.63 287.247C733.825 301.66 736.665 310.235 743.905 322.7C750.484 334.029 754.167 340.022 766.712 347.3C779.258 354.579 788.643 354.446 803.147 354.504C821.798 354.577 832.02 349.507 849.504 343.014C861.862 338.425 880.114 328.787 880.114 328.787L869.259 349.924C869.259 349.924 856.616 366.108 846.582 374.545C835.034 384.254 827.959 390.019 813.643 394.883C796.375 400.751 785.223 399.04 767.227 397.348C752.006 395.917 743.023 394.95 729.174 388.886C713.785 382.148 705.107 376.577 694.707 363.671C685.078 351.721 682.307 342.869 678.177 328.107C673.716 312.161 672.18 302.386 674.017 285.788C675.885 268.904 678.964 259.015 687.771 244.194C697.325 228.115 705.544 219.993 721.28 209.511C732.545 202.006 752.74 194.888 752.74 194.888L794.683 189.474Z" stroke="#FFFCFC" stroke-width="0.5"/>
<path d="M1001.5 842L1008.12 863.075H1029.56L1012.22 876.1L1018.84 897.175L1001.5 884.15L984.16 897.175L990.783 876.1L973.444 863.075H994.877L1001.5 842Z" fill="#F0EDA5"/>
<path d="M1210.5 540L1217.12 561.075H1238.56L1221.22 574.1L1227.84 595.175L1210.5 582.15L1193.16 595.175L1199.78 574.1L1182.44 561.075H1203.88L1210.5 540Z" fill="#FBFFFD"/>
<path d="M961 193L968.633 215.802H993.336L973.351 229.895L980.985 252.698L961 238.605L941.015 252.698L948.649 229.895L928.664 215.802H953.367L961 193Z" fill="#FFFCFC"/>
<path d="M978.5 359L985.123 380.075H1006.56L989.217 393.1L995.84 414.175L978.5 401.15L961.16 414.175L967.783 393.1L950.444 380.075H971.877L978.5 359Z" fill="#FBFFFD"/>
<path d="M575 803L581.735 824.42H603.532L585.898 837.659L592.634 859.08L575 845.841L557.366 859.08L564.102 837.659L546.468 824.42H568.265L575 803Z" fill="#FBFFFD"/>
<path d="M1155 125L1161.51 144.693H1182.58L1165.53 156.864L1172.05 176.557L1155 164.386L1137.95 176.557L1144.47 156.864L1127.42 144.693H1148.49L1155 125Z" fill="#F0EDA5"/>
<path d="M433.146 696.821C425.137 695.061 411.926 699.833 411.926 699.833L408.642 699.9L410.77 709.372L413.181 717.066L415.767 722.729L422.305 734.637C422.305 734.637 430.167 729.185 435.986 728.39C448.102 726.736 451.165 742.462 463.337 743.634C478.537 745.098 490.843 740.362 498.907 727.394C505.017 717.568 494.873 706.635 502.567 697.992C508.034 691.85 513.508 689.67 521.72 689.247C533.817 688.624 536.709 702.468 548.614 704.699C560.52 706.931 578.45 696.323 588.077 681.186C593.32 672.941 593.5 669 593.5 669L591 657L588.077 647.5L581.618 629.719L574.528 621.414C574.528 621.414 565.35 630.87 562.658 637.69C559.107 646.688 566.99 653.947 562.394 662.46C556.442 673.485 545.4 678.675 533.209 675.785C523.875 673.573 524.01 662.145 514.775 659.552C501.015 655.688 488.456 662.275 481.485 674.751C476.591 683.508 484.816 691.912 479.397 700.354C473.157 710.074 463.854 714.716 452.491 712.638C442.892 710.883 442.976 698.981 433.146 696.821Z" fill="#E67F8C" stroke="#E67F8C" stroke-width="0.5"/>
<path d="M440.225 685.904C430.575 684.191 430.649 672.268 420.766 670.151L410.631 663.932L408.742 673.064L407.689 684.015L407.968 695.454L409.903 708.086C409.903 708.086 417.802 702.586 423.65 701.763C435.826 700.048 438.919 715.787 451.153 716.903C466.432 718.298 478.796 713.494 486.889 700.465C493.022 690.593 482.816 679.688 490.541 670.994C496.03 664.815 501.53 662.605 509.783 662.143C521.941 661.461 524.86 675.315 536.828 677.494C548.796 679.673 565.947 669.115 565.867 654.772C565.842 650.399 562.882 648.299 563.094 643.929C563.348 638.671 566.122 636.266 568.468 631.542C570.841 626.766 575.175 619.643 575.175 619.643L564.464 610.799L556.548 605.627L545.093 598.777L546.975 602.869L550.478 610.485L552.01 619.833L550.64 635.115C544.667 646.188 533.574 651.439 521.318 648.602C511.935 646.43 512.061 634.981 502.776 632.428C488.943 628.623 476.326 635.281 469.331 647.812C464.421 656.608 472.695 664.987 467.256 673.47C460.993 683.237 451.647 687.931 440.225 685.904Z" fill="#EF96A1" stroke="#E67F8C" stroke-width="0.5"/>
<path d="M1243.42 282.5C1251.82 275.219 1250.49 266.444 1252.45 255.5C1252.97 252.589 1253.5 248 1253.5 248L1258 255.5C1258 255.5 1261.61 264.793 1262.99 271C1264.28 276.769 1264.87 280.091 1265 286C1265.16 293.071 1264.64 297.121 1262.99 304C1261.04 312.186 1259.06 316.65 1254.96 324C1251.21 330.729 1248.92 334.611 1243.42 340C1237.36 345.925 1233 348.376 1225.35 352C1218.46 355.261 1214.32 356.894 1206.78 358C1200.18 358.968 1194.42 358.781 1189.71 358L1177.67 356L1165.62 352L1156.59 347L1147.55 340L1142.03 334L1137.51 327L1134 321.5V318C1134 318 1187.2 351.574 1189.71 329.5C1190.68 321.023 1182.06 316.874 1183.69 308.5C1187.21 290.415 1229.08 326.838 1230.87 308.5C1232.21 294.723 1201.72 295.387 1206.78 282.5C1212 269.179 1232.6 291.87 1243.42 282.5Z" fill="#616DD6" stroke="#9396DB" stroke-width="0.5"/>
<g filter="url(#filter6_d_18_11)">
<ellipse cx="1141.5" cy="812" rx="69.5" ry="70" fill="#B735AA"/>
</g>
<circle cx="1123.5" cy="774.5" r="8.5" fill="#BC67B4"/>
<circle cx="1168" cy="774" r="5" fill="#BC67B4"/>
<circle cx="1192" cy="807" r="5" fill="#BC67B4"/>
<ellipse cx="1137" cy="864.5" rx="5" ry="4.5" fill="#BC67B4"/>
<circle cx="1108" cy="820" r="17" fill="#BC67B4"/>
<circle cx="1175.5" cy="833.5" r="8.5" fill="#BC67B4"/>
<path d="M422 469L428.511 488.693H449.581L432.535 500.864L439.046 520.557L422 508.386L404.954 520.557L411.465 500.864L394.419 488.693H415.489L422 469Z" fill="#F0EDA5"/>
<defs>
<filter id="filter0_i_18_11" x="0.750031" y="0.750031" width="1304.5" height="1015.5" filterUnits="userSpaceOnUse" color-interpolation-filters="sRGB">
<feFlood flood-opacity="0" result="BackgroundImageFix"/>
<feBlend mode="normal" in="SourceGraphic" in2="BackgroundImageFix" result="shape"/>
<feColorMatrix in="SourceAlpha" type="matrix" values="0 0 0 0 0 0 0 0 0 0 0 0 0 0 0 0 0 0 127 0" result="hardAlpha"/>
<feOffset dy="4"/>
<feGaussianBlur stdDeviation="2"/>
<feComposite in2="hardAlpha" operator="arithmetic" k2="-1" k3="1"/>
<feColorMatrix type="matrix" values="0 0 0 0 0 0 0 0 0 0 0 0 0 0 0 0 0 0 0.25 0"/>
<feBlend mode="normal" in2="shape" result="effect1_innerShadow_18_11"/>
</filter>
<filter id="filter1_d_18_11" x="1122" y="216" width="147" height="148" filterUnits="userSpaceOnUse" color-interpolation-filters="sRGB">
<feFlood flood-opacity="0" result="BackgroundImageFix"/>
<feColorMatrix in="SourceAlpha" type="matrix" values="0 0 0 0 0 0 0 0 0 0 0 0 0 0 0 0 0 0 127 0" result="hardAlpha"/>
<feOffset dy="4"/>
<feGaussianBlur stdDeviation="2"/>
<feComposite in2="hardAlpha" operator="out"/>
<feColorMatrix type="matrix" values="0 0 0 0 0 0 0 0 0 0 0 0 0 0 0 0 0 0 0.25 0"/>
<feBlend mode="normal" in2="BackgroundImageFix" result="effect1_dropShadow_18_11"/>
<feBlend mode="normal" in="SourceGraphic" in2="effect1_dropShadow_18_11" result="shape"/>
</filter>
<filter id="filter2_d_18_11" x="403.158" y="587.175" width="196.685" height="195.65" filterUnits="userSpaceOnUse" color-interpolation-filters="sRGB">
<feFlood flood-opacity="0" result="BackgroundImageFix"/>
<feColorMatrix in="SourceAlpha" type="matrix" values="0 0 0 0 0 0 0 0 0 0 0 0 0 0 0 0 0 0 127 0" result="hardAlpha"/>
<feOffset dy="4"/>
<feGaussianBlur stdDeviation="2"/>
<feComposite in2="hardAlpha" operator="out"/>
<feColorMatrix type="matrix" values="0 0 0 0 0 0 0 0 0 0 0 0 0 0 0 0 0 0 0.25 0"/>
<feBlend mode="normal" in2="BackgroundImageFix" result="effect1_dropShadow_18_11"/>
<feBlend mode="normal" in="SourceGraphic" in2="effect1_dropShadow_18_11" result="shape"/>
</filter>
<filter id="filter3_b_18_11" x="445.567" y="258.583" width="836.74" height="641.749" filterUnits="userSpaceOnUse" color-interpolation-filters="sRGB">
<feFlood flood-opacity="0" result="BackgroundImageFix"/>
<feGaussianBlur in="BackgroundImageFix" stdDeviation="2"/>
<feComposite in2="SourceAlpha" operator="in" result="effect1_backgroundBlur_18_11"/>
<feBlend mode="normal" in="SourceGraphic" in2="effect1_backgroundBlur_18_11" result="shape"/>
</filter>
<filter id="filter4_b_18_11" x="545.549" y="135.742" width="762.737" height="671.203" filterUnits="userSpaceOnUse" color-interpolation-filters="sRGB">
<feFlood flood-opacity="0" result="BackgroundImageFix"/>
<feGaussianBlur in="BackgroundImageFix" stdDeviation="2"/>
<feComposite in2="SourceAlpha" operator="in" result="effect1_backgroundBlur_18_11"/>
<feBlend mode="normal" in="SourceGraphic" in2="effect1_backgroundBlur_18_11" result="shape"/>
</filter>
<filter id="filter5_i_18_11" x="673.007" y="189.219" width="207.692" height="213.988" filterUnits="userSpaceOnUse" color-interpolation-filters="sRGB">
<feFlood flood-opacity="0" result="BackgroundImageFix"/>
<feBlend mode="normal" in="SourceGraphic" in2="BackgroundImageFix" result="shape"/>
<feColorMatrix in="SourceAlpha" type="matrix" values="0 0 0 0 0 0 0 0 0 0 0 0 0 0 0 0 0 0 127 0" result="hardAlpha"/>
<feOffset dy="4"/>
<feGaussianBlur stdDeviation="2"/>
<feComposite in2="hardAlpha" operator="arithmetic" k2="-1" k3="1"/>
<feColorMatrix type="matrix" values="0 0 0 0 0 0 0 0 0 0 0 0 0 0 0 0 0 0 0.25 0"/>
<feBlend mode="normal" in2="shape" result="effect1_innerShadow_18_11"/>
</filter>
<filter id="filter6_d_18_11" x="1068" y="742" width="147" height="148" filterUnits="userSpaceOnUse" color-interpolation-filters="sRGB">
<feFlood flood-opacity="0" result="BackgroundImageFix"/>
<feColorMatrix in="SourceAlpha" type="matrix" values="0 0 0 0 0 0 0 0 0 0 0 0 0 0 0 0 0 0 127 0" result="hardAlpha"/>
<feOffset dy="4"/>
<feGaussianBlur stdDeviation="2"/>
<feComposite in2="hardAlpha" operator="out"/>
<feColorMatrix type="matrix" values="0 0 0 0 0 0 0 0 0 0 0 0 0 0 0 0 0 0 0.25 0"/>
<feBlend mode="normal" in2="BackgroundImageFix" result="effect1_dropShadow_18_11"/>
<feBlend mode="normal" in="SourceGraphic" in2="effect1_dropShadow_18_11" result="shape"/>
</filter>
</defs>
</svg>
