<svg width="149" height="157" viewBox="0 0 149 157" fill="none" xmlns="http://www.w3.org/2000/svg">
<path d="M34 4L60 82.5H94.5L116.5 4L87 18L76.5 4L63.5 18L34 4Z" fill="#ADDBA9" stroke="black" stroke-width="4"/>
<path d="M48.5 42.5C37.3583 42.8461 32.3933 34.098 21.287 33.158C-14.1981 30.1547 6.21036 94.5563 27.3535 122.786C40.616 140.493 52.5343 154.265 74.8747 154.155C97.0515 154.047 108.743 140.376 121.89 122.786C143.459 93.9296 163.107 27.2385 126.946 31.1663C115.008 32.463 110.974 43.424 99 42.5C87.859 41.6402 86.0351 39.2227 74.8747 38.6561C62.6951 38.0378 60.6898 42.1213 48.5 42.5Z" fill="#F0B256" stroke="black" stroke-width="4"/>
<path d="M50 116.004C50 116.004 59.6602 122.603 64.7643 122.817C70.2816 123.048 72.4963 116.203 78.0143 116.004C83.9499 115.79 86.5659 124.345 92.4 122.817C96.9125 121.635 103 118.1 103 118.1" stroke="black" stroke-width="4"/>
<path d="M34 88.0056C34 88.0056 48.946 97.4332 56.8429 97.7386C65.3791 98.0687 68.8056 88.2896 77.3429 88.0056C86.5263 87.7002 90.5737 99.9221 99.6 97.7386C106.582 96.0497 116 91.0004 116 91.0004" stroke="black" stroke-width="4"/>
<path d="M25 61.0062C25 61.0062 42.68 71.3765 52.0214 71.7125C62.1192 72.0756 66.1725 61.3185 76.2714 61.0062C87.1347 60.6702 91.9225 74.1143 102.6 71.7125C110.859 69.8547 122 64.3004 122 64.3004" stroke="black" stroke-width="4"/>
</svg>
