<svg width="645" height="858" viewBox="0 0 645 858" fill="none" xmlns="http://www.w3.org/2000/svg">
<ellipse cx="352" cy="320" rx="158" ry="136" fill="#E4D7EC"/>
<path d="M316.5 380C316.5 420.068 285.805 452.5 248 452.5C210.195 452.5 179.5 420.068 179.5 380C179.5 339.932 210.195 307.5 248 307.5C285.805 307.5 316.5 339.932 316.5 380Z" fill="#E4D7EC" stroke="#E4D7EC"/>
<path d="M242.098 136.594C253.076 167.392 282.359 210 282.359 210H297C297 210 300.332 156.933 297 123.199C293.985 92.6783 282.359 46.0424 282.359 46.0424L275.954 24.0743C275.954 24.0743 271.836 11.9082 265.431 7.99999C257.653 3.2535 250.416 4.27974 242.098 7.99999C234.236 11.5161 227 24.0743 227 24.0743C227 24.0743 227 45.3008 227 58.9018C227 72.5029 231.72 107.48 242.098 136.594Z" fill="#E4D7EC"/>
<path d="M242.098 136.594C253.076 167.392 282.359 210 282.359 210H297C297 210 300.332 156.933 297 123.199C293.985 92.6783 282.359 46.0424 282.359 46.0424L275.954 24.0743C275.954 24.0743 271.836 11.9082 265.431 7.99999C257.653 3.2535 250.416 4.27974 242.098 7.99999C234.236 11.5161 227 24.0743 227 24.0743C227 24.0743 227 45.3008 227 58.9018C227 72.5029 231.72 107.48 242.098 136.594Z" fill="#E4D7EC"/>
<path d="M242.098 136.594C253.076 167.392 282.359 210 282.359 210H297C297 210 300.332 156.933 297 123.199C293.985 92.6783 282.359 46.0424 282.359 46.0424L275.954 24.0743C275.954 24.0743 271.836 11.9082 265.431 7.99999C257.653 3.2535 250.416 4.27974 242.098 7.99999C234.236 11.5161 227 24.0743 227 24.0743C227 24.0743 227 45.3008 227 58.9018C227 72.5029 231.72 107.48 242.098 136.594Z" fill="#E4D7EC"/>
<path d="M242.098 136.594C253.076 167.392 282.359 210 282.359 210H297C297 210 300.332 156.933 297 123.199C293.985 92.6783 282.359 46.0424 282.359 46.0424L275.954 24.0743C275.954 24.0743 271.836 11.9082 265.431 7.99999C257.653 3.2535 250.416 4.27974 242.098 7.99999C234.236 11.5161 227 24.0743 227 24.0743C227 24.0743 227 45.3008 227 58.9018C227 72.5029 231.72 107.48 242.098 136.594Z" fill="#E4D7EC"/>
<path d="M242.098 136.594C253.076 167.392 282.359 210 282.359 210H297C297 210 300.332 156.933 297 123.199C293.985 92.6783 282.359 46.0424 282.359 46.0424L275.954 24.0743C275.954 24.0743 271.836 11.9082 265.431 7.99999C257.653 3.2535 250.416 4.27974 242.098 7.99999C234.236 11.5161 227 24.0743 227 24.0743C227 24.0743 227 45.3008 227 58.9018C227 72.5029 231.72 107.48 242.098 136.594Z" stroke="#E4D7EC"/>
<path d="M242.098 136.594C253.076 167.392 282.359 210 282.359 210H297C297 210 300.332 156.933 297 123.199C293.985 92.6783 282.359 46.0424 282.359 46.0424L275.954 24.0743C275.954 24.0743 271.836 11.9082 265.431 7.99999C257.653 3.2535 250.416 4.27974 242.098 7.99999C234.236 11.5161 227 24.0743 227 24.0743C227 24.0743 227 45.3008 227 58.9018C227 72.5029 231.72 107.48 242.098 136.594Z" stroke="#E4D7EC"/>
<path d="M242.098 136.594C253.076 167.392 282.359 210 282.359 210H297C297 210 300.332 156.933 297 123.199C293.985 92.6783 282.359 46.0424 282.359 46.0424L275.954 24.0743C275.954 24.0743 271.836 11.9082 265.431 7.99999C257.653 3.2535 250.416 4.27974 242.098 7.99999C234.236 11.5161 227 24.0743 227 24.0743C227 24.0743 227 45.3008 227 58.9018C227 72.5029 231.72 107.48 242.098 136.594Z" stroke="#E4D7EC"/>
<path d="M242.098 136.594C253.076 167.392 282.359 210 282.359 210H297C297 210 300.332 156.933 297 123.199C293.985 92.6783 282.359 46.0424 282.359 46.0424L275.954 24.0743C275.954 24.0743 271.836 11.9082 265.431 7.99999C257.653 3.2535 250.416 4.27974 242.098 7.99999C234.236 11.5161 227 24.0743 227 24.0743C227 24.0743 227 45.3008 227 58.9018C227 72.5029 231.72 107.48 242.098 136.594Z" stroke="#E4D7EC"/>
<path d="M445.688 130.759C435.742 164.19 418.366 185.586 404.912 213H393.791V121.91C393.791 121.91 389.762 77.6533 393.791 49.5588C395.491 37.7 395.228 30.7587 399.969 19.369C402.946 12.2184 409.854 1.67159 409.854 1.67159C409.854 1.67159 420.465 0.160508 426.741 1.67159C438.023 4.3877 439.938 10.6904 445.688 19.369C454.131 32.1122 454.144 42.9304 455.985 58.4075C459.352 86.7101 453.94 103.02 445.688 130.759Z" fill="#E4D7EC" stroke="#E4D7EC"/>
<path d="M435.5 520C435.5 545.001 426.54 564.236 412.088 577.225C397.628 590.22 377.63 597 355.5 597C333.37 597 313.372 590.22 298.912 577.225C284.46 564.236 275.5 545.001 275.5 520C275.5 469.959 311.373 429.5 355.5 429.5C399.627 429.5 435.5 469.959 435.5 520Z" fill="#E4D7EC" stroke="#E4D7EC"/>
<path d="M216.4 467.763C235.16 454.443 275 456.062 275 456.062V467.763C275 467.763 246.676 490.312 223.884 492.822C216.305 493.656 208.416 499.536 204.35 492.822C201.789 488.593 201.296 484.923 202.995 480.195C205.363 473.604 210.543 471.921 216.4 467.763Z" fill="#E4D7EC" stroke="#E4D7EC"/>
<path d="M449.941 457.939L412 442V454.901L439.984 472.962C439.984 472.962 456.579 490.131 470.767 493.087C478.779 494.756 485.982 498.71 491.755 493.087C497.483 487.508 495.512 483.426 492.85 476C486.868 459.309 449.941 457.939 449.941 457.939Z" fill="#E4D7EC" stroke="#E4D7EC"/>
<path d="M284.048 588.651C281.69 574.142 284.048 551 284.048 551L316 581.031V596.271L309.343 612.855C309.343 612.855 305.723 620.293 301.355 620.923C296.208 621.666 294.061 616.866 290.705 612.855C284.434 605.364 285.621 598.332 284.048 588.651Z" fill="#E4D7EC" stroke="#E4D7EC"/>
<path d="M425 584V552L394 584C394 584 399.035 607.75 405.5 616.5C409.11 621.386 408.932 621.289 415 621C420.799 620.724 425 610 425 610V584Z" fill="#E4D7EC" stroke="#E4D7EC"/>
<ellipse cx="353" cy="378" rx="19" ry="8" fill="#DEA3A3"/>
<g filter="url(#filter0_d_30_78)">
<path d="M335 483L312.5 458L355 464.5L394 458L373.5 482.5L353.5 505L335 483Z" fill="#FFFCFC"/>
<path d="M335 483L312.5 458L355 464.5M335 483L353.5 505L373.5 482.5M335 483L345 473.75L355 464.5M355 464.5L373.5 482.5M355 464.5L394 458L373.5 482.5" stroke="#D9D9D9" stroke-width="0.5"/>
</g>
<path d="M354 477.5L348.5 471L355 464L361 471L356 477.5L362.5 495.5L353.5 505C351.333 502.333 347 497.8 347 497L354 477.5Z" fill="#1E1E1E"/>
<path d="M354 477.5L348.5 471L355 464L361 471L356 477.5M354 477.5H356M354 477.5L347 497C347 497.8 351.333 502.333 353.5 505L362.5 495.5L356 477.5" stroke="#D9D9D9" stroke-width="0.5"/>
<ellipse cx="457" cy="381" rx="69" ry="73" fill="#E4D7EC"/>
<path d="M254.216 455.12L301.592 446L354.512 507.461L409.448 446L479 462.213L461.864 492.613L430.616 476.4L440.192 560L266.816 560L278.912 476.4L236.576 492.613L227 462.213L254.216 455.12Z" fill="#1E1E1E" stroke="#1E1E1E"/>
<g filter="url(#filter1_d_30_78)">
<ellipse cx="353.5" cy="401.5" rx="90.5" ry="62.5" fill="#F7F3FA"/>
<path d="M443.5 401.5C443.5 418.548 433.495 434.036 417.209 445.283C400.925 456.528 378.402 463.5 353.5 463.5C328.598 463.5 306.075 456.528 289.791 445.283C273.505 434.036 263.5 418.548 263.5 401.5C263.5 384.452 273.505 368.964 289.791 357.717C306.075 346.472 328.598 339.5 353.5 339.5C378.402 339.5 400.925 346.472 417.209 357.717C433.495 368.964 443.5 384.452 443.5 401.5Z" stroke="#FFFCFC"/>
</g>
<g filter="url(#filter2_i_30_78)">
<path d="M271 166.309L289.5 196L296 191.889L289.5 163.111L284.5 136.16L282 106.012L277.5 78.6049L271 56.679L265 48H253L244.5 53.9383L242 68.0988L244.5 87.284L249.5 113.321L258.5 142.099L271 166.309Z" fill="#F8C3C3"/>
</g>
<path d="M271 166.309L289.5 196L296 191.889L289.5 163.111L284.5 136.16L282 106.012L277.5 78.6049L271 56.679L265 48H253L244.5 53.9383L242 68.0988L244.5 87.284L249.5 113.321L258.5 142.099L271 166.309Z" stroke="#F7DBDB" stroke-width="0.5"/>
<ellipse cx="356" cy="380" rx="19" ry="8" fill="#F7DBDB"/>
<path d="M348.388 394C347.515 391 348.388 386 348.388 386H362.888C362.888 386 363.761 391 362.888 394C362.13 396.605 361.71 398.597 359.388 400C356.881 401.514 354.395 401.514 351.888 400C349.566 398.597 349.146 396.605 348.388 394Z" fill="#F7DBDB" stroke="#F7DBDB"/>
<g filter="url(#filter3_d_30_78)">
<path d="M249.5 311L325.327 313.428C325.327 313.428 325.871 316.645 326.337 321.27H383.109C383.562 316.677 384.262 313.428 384.262 313.428H462.5C462.5 313.428 465.237 346.451 450.5 353.5C445.819 355.739 437.5 356.253 437.5 356.253H405.852C391.848 353.457 392.792 352.874 387.763 347.206C384.492 343.519 383.19 337.809 382.837 332.127H326.985C327.052 337.503 326.672 343.033 325.327 347.206C323.576 352.634 319.322 355.364 308.405 356.253C297.488 357.143 297.584 357.55 280 356.253C262.416 354.957 261.96 354.542 252.971 350.825C238.383 344.793 249.5 311 249.5 311Z" fill="#1E1E1E"/>
<path d="M383.109 321.27L382.758 326.698M386.013 326.698V321.27H325.327V326.698V332.127H386.013L388.93 323.079M249.5 311L325.327 313.428C325.327 313.428 329.074 335.586 325.327 347.206C323.576 352.634 319.322 355.364 308.405 356.253C297.488 357.143 297.584 357.55 280 356.253C262.416 354.957 261.96 354.542 252.971 350.825C238.383 344.793 249.5 311 249.5 311ZM384.262 313.428C384.262 313.428 379.089 337.429 387.763 347.206C392.792 352.874 391.848 353.457 405.852 356.253H437.5C437.5 356.253 445.819 355.739 450.5 353.5C465.237 346.451 462.5 313.428 462.5 313.428H384.262Z" stroke="#1E1E1E"/>
</g>
<g filter="url(#filter4_i_30_78)">
<path d="M405 143.5L399 193L411 196L417.5 178L430 143.5L441 89.5V61L437 48.5L423.5 43L411 48.5L405 61V94V143.5Z" fill="#F8C3C3"/>
</g>
<path d="M405 143.5L399 193L411 196L417.5 178L430 143.5L441 89.5V61L437 48.5L423.5 43L411 48.5L405 61V94V143.5Z" stroke="#D9D9D9" stroke-width="0.5"/>
<path d="M644.5 705.5C644.5 756.31 354.335 798 279.5 798C197.5 779.247 237.265 790.514 214.5 778.747C181.987 761.942 161 735.385 161 705.5C161 677.981 178.796 653.283 207 636.424C230.871 622.155 262.197 613.5 296.5 613.5C371.335 613.5 644.5 654.69 644.5 705.5Z" fill="#F0B256"/>
<path opacity="0.8" d="M408.5 791L287 797.5L252 783L244 801L264.5 808L247.5 836.5L124.5 850L239.5 857L298.5 850H500.5C500.5 850 586 839 609.5 823.5C633 808 536.428 791 500.5 791H408.5Z" fill="#D9D9D9" fill-opacity="0.8" stroke="#D9D9D9" stroke-width="0.5"/>
<g filter="url(#filter5_d_30_78)">
<path d="M94 654L161 692.5L165.5 729L94 799L109 757L14.5 779.5L67.5 729L5 719L52.5 701.5L14.5 660L109 688L94 654Z" fill="#9ECB9A"/>
<path d="M94 654L161 692.5L165.5 729L94 799L109 757L14.5 779.5L67.5 729L5 719L52.5 701.5L14.5 660L109 688L94 654Z" stroke="#A3DE9E" stroke-width="0.5"/>
</g>
<path d="M295.5 675.572C298.586 650.839 312.3 614 312.3 614L316.5 617.185C316.5 617.185 304.09 653.158 301.567 677.164C299.357 698.195 300.23 710.281 302.5 731.305C305.233 756.626 316.5 795 316.5 795H309.967C309.967 795 298.117 756.678 295.5 731.305C293.267 709.655 292.805 697.17 295.5 675.572Z" fill="#F49300" stroke="#F49300" stroke-width="0.5"/>
<path d="M99.5 591.5L207 580.5L280 616.5L200.5 643.5L174.5 612L99.5 591.5Z" fill="#F0B256"/>
<path d="M207 842.5L284.5 794L200.5 767L174.5 810L99.5 835.5L207 842.5Z" fill="#F0B256"/>
<path d="M99.5 591.5L207 580.5L280 616.5L200.5 643.5L174.5 612L99.5 591.5Z" stroke="#F0B256" stroke-width="0.5"/>
<path d="M207 842.5L284.5 794L200.5 767L174.5 810L99.5 835.5L207 842.5Z" stroke="#F0B256" stroke-width="0.5"/>
<path d="M116.5 675.5L161.5 696.5L165.5 726L113.5 766L127.5 735.5L58.5 755L90 722.5L47 713L90 700.5L63.5 685L127.5 696.5L116.5 675.5Z" fill="#D2EDBD" stroke="#BAE2B6" stroke-width="0.5"/>
<path d="M548.716 689.337C550.741 675.946 559.743 656 559.743 656L562.5 657.724C562.5 657.724 554.354 677.202 552.698 690.199C551.247 701.586 551.821 708.13 553.31 719.513C555.105 733.223 562.5 754 562.5 754H558.212C558.212 754 550.434 733.251 548.716 719.513C547.25 707.791 546.947 701.031 548.716 689.337Z" fill="#F49300" stroke="#F49300" stroke-width="0.5"/>
<g filter="url(#filter6_d_30_78)">
<ellipse cx="463" cy="700.5" rx="48.5" ry="46.5" fill="#B9DEDC"/>
<path d="M506.5 700.5C506.5 723.223 487.225 742 463 742C438.775 742 419.5 723.223 419.5 700.5C419.5 677.777 438.775 659 463 659C487.225 659 506.5 677.777 506.5 700.5Z" stroke="#A09A9A" stroke-width="10"/>
</g>
<defs>
<filter id="filter0_d_30_78" x="307.846" y="457.642" width="90.7792" height="55.7399" filterUnits="userSpaceOnUse" color-interpolation-filters="sRGB">
<feFlood flood-opacity="0" result="BackgroundImageFix"/>
<feColorMatrix in="SourceAlpha" type="matrix" values="0 0 0 0 0 0 0 0 0 0 0 0 0 0 0 0 0 0 127 0" result="hardAlpha"/>
<feOffset dy="4"/>
<feGaussianBlur stdDeviation="2"/>
<feComposite in2="hardAlpha" operator="out"/>
<feColorMatrix type="matrix" values="0 0 0 0 0 0 0 0 0 0 0 0 0 0 0 0 0 0 0.25 0"/>
<feBlend mode="normal" in2="BackgroundImageFix" result="effect1_dropShadow_30_78"/>
<feBlend mode="normal" in="SourceGraphic" in2="effect1_dropShadow_30_78" result="shape"/>
</filter>
<filter id="filter1_d_30_78" x="259" y="339" width="189" height="133" filterUnits="userSpaceOnUse" color-interpolation-filters="sRGB">
<feFlood flood-opacity="0" result="BackgroundImageFix"/>
<feColorMatrix in="SourceAlpha" type="matrix" values="0 0 0 0 0 0 0 0 0 0 0 0 0 0 0 0 0 0 127 0" result="hardAlpha"/>
<feOffset dy="4"/>
<feGaussianBlur stdDeviation="2"/>
<feComposite in2="hardAlpha" operator="out"/>
<feColorMatrix type="matrix" values="0 0 0 0 0 0 0 0 0 0 0 0 0 0 0 0 0 0 0.25 0"/>
<feBlend mode="normal" in2="BackgroundImageFix" result="effect1_dropShadow_30_78"/>
<feBlend mode="normal" in="SourceGraphic" in2="effect1_dropShadow_30_78" result="shape"/>
</filter>
<filter id="filter2_i_30_78" x="241.747" y="47.75" width="54.5356" height="152.596" filterUnits="userSpaceOnUse" color-interpolation-filters="sRGB">
<feFlood flood-opacity="0" result="BackgroundImageFix"/>
<feBlend mode="normal" in="SourceGraphic" in2="BackgroundImageFix" result="shape"/>
<feColorMatrix in="SourceAlpha" type="matrix" values="0 0 0 0 0 0 0 0 0 0 0 0 0 0 0 0 0 0 127 0" result="hardAlpha"/>
<feOffset dy="4"/>
<feGaussianBlur stdDeviation="2"/>
<feComposite in2="hardAlpha" operator="arithmetic" k2="-1" k3="1"/>
<feColorMatrix type="matrix" values="0 0 0 0 0 0 0 0 0 0 0 0 0 0 0 0 0 0 0.25 0"/>
<feBlend mode="normal" in2="shape" result="effect1_innerShadow_30_78"/>
</filter>
<filter id="filter3_d_30_78" x="240.947" y="310.488" width="226.254" height="55.0917" filterUnits="userSpaceOnUse" color-interpolation-filters="sRGB">
<feFlood flood-opacity="0" result="BackgroundImageFix"/>
<feColorMatrix in="SourceAlpha" type="matrix" values="0 0 0 0 0 0 0 0 0 0 0 0 0 0 0 0 0 0 127 0" result="hardAlpha"/>
<feOffset dy="4"/>
<feGaussianBlur stdDeviation="2"/>
<feComposite in2="hardAlpha" operator="out"/>
<feColorMatrix type="matrix" values="0 0 0 0 0 0 0 0 0 0 0 0 0 0 0 0 0 0 0.25 0"/>
<feBlend mode="normal" in2="BackgroundImageFix" result="effect1_dropShadow_30_78"/>
<feBlend mode="normal" in="SourceGraphic" in2="effect1_dropShadow_30_78" result="shape"/>
</filter>
<filter id="filter4_i_30_78" x="398.725" y="42.7285" width="42.5247" height="157.569" filterUnits="userSpaceOnUse" color-interpolation-filters="sRGB">
<feFlood flood-opacity="0" result="BackgroundImageFix"/>
<feBlend mode="normal" in="SourceGraphic" in2="BackgroundImageFix" result="shape"/>
<feColorMatrix in="SourceAlpha" type="matrix" values="0 0 0 0 0 0 0 0 0 0 0 0 0 0 0 0 0 0 127 0" result="hardAlpha"/>
<feOffset dy="4"/>
<feGaussianBlur stdDeviation="2"/>
<feComposite in2="hardAlpha" operator="arithmetic" k2="-1" k3="1"/>
<feColorMatrix type="matrix" values="0 0 0 0 0 0 0 0 0 0 0 0 0 0 0 0 0 0 0.25 0"/>
<feBlend mode="normal" in2="shape" result="effect1_innerShadow_30_78"/>
</filter>
<filter id="filter5_d_30_78" x="0.0166931" y="653.403" width="169.747" height="153.775" filterUnits="userSpaceOnUse" color-interpolation-filters="sRGB">
<feFlood flood-opacity="0" result="BackgroundImageFix"/>
<feColorMatrix in="SourceAlpha" type="matrix" values="0 0 0 0 0 0 0 0 0 0 0 0 0 0 0 0 0 0 127 0" result="hardAlpha"/>
<feOffset dy="4"/>
<feGaussianBlur stdDeviation="2"/>
<feComposite in2="hardAlpha" operator="out"/>
<feColorMatrix type="matrix" values="0 0 0 0 0 0 0 0 0 0 0 0 0 0 0 0 0 0 0.25 0"/>
<feBlend mode="normal" in2="BackgroundImageFix" result="effect1_dropShadow_30_78"/>
<feBlend mode="normal" in="SourceGraphic" in2="effect1_dropShadow_30_78" result="shape"/>
</filter>
<filter id="filter6_d_30_78" x="410.5" y="654" width="105" height="101" filterUnits="userSpaceOnUse" color-interpolation-filters="sRGB">
<feFlood flood-opacity="0" result="BackgroundImageFix"/>
<feColorMatrix in="SourceAlpha" type="matrix" values="0 0 0 0 0 0 0 0 0 0 0 0 0 0 0 0 0 0 127 0" result="hardAlpha"/>
<feOffset dy="4"/>
<feGaussianBlur stdDeviation="2"/>
<feComposite in2="hardAlpha" operator="out"/>
<feColorMatrix type="matrix" values="0 0 0 0 0 0 0 0 0 0 0 0 0 0 0 0 0 0 0.25 0"/>
<feBlend mode="normal" in2="BackgroundImageFix" result="effect1_dropShadow_30_78"/>
<feBlend mode="normal" in="SourceGraphic" in2="effect1_dropShadow_30_78" result="shape"/>
</filter>
</defs>
</svg>
