<svg width="347" height="460" viewBox="0 0 347 460" fill="none" xmlns="http://www.w3.org/2000/svg">
<ellipse cx="173" cy="316" rx="158" ry="136" fill="#E4D7EC"/>
<path d="M137.5 376C137.5 416.068 106.805 448.5 69 448.5C31.1947 448.5 0.5 416.068 0.5 376C0.5 335.932 31.1947 303.5 69 303.5C106.805 303.5 137.5 335.932 137.5 376Z" fill="#E4D7EC" stroke="#E4D7EC"/>
<path d="M60.1714 134.754C67.9991 166.499 92.8526 211.834 92.8526 211.834L107.419 213.305C107.419 213.305 116.067 160.841 116.142 126.944C116.209 96.2745 109.329 48.7064 109.329 48.7064L105.163 26.2058C105.163 26.2058 102.288 13.6875 96.309 9.15545C89.0469 3.65134 81.7437 3.94518 73.0937 6.81071C64.9184 9.519 56.4568 21.2864 56.4568 21.2864C56.4568 21.2864 54.3238 42.4056 52.957 55.9377C51.5903 69.4699 52.7716 104.745 60.1714 134.754Z" fill="#E4D7EC"/>
<path d="M60.1714 134.754C67.9991 166.499 92.8526 211.834 92.8526 211.834L107.419 213.305C107.419 213.305 116.067 160.841 116.142 126.944C116.209 96.2745 109.329 48.7064 109.329 48.7064L105.163 26.2058C105.163 26.2058 102.288 13.6875 96.309 9.15545C89.0469 3.65134 81.7437 3.94518 73.0937 6.81071C64.9184 9.519 56.4568 21.2864 56.4568 21.2864C56.4568 21.2864 54.3238 42.4056 52.957 55.9377C51.5903 69.4699 52.7716 104.745 60.1714 134.754Z" fill="#E4D7EC"/>
<path d="M60.1714 134.754C67.9991 166.499 92.8526 211.834 92.8526 211.834L107.419 213.305C107.419 213.305 116.067 160.841 116.142 126.944C116.209 96.2745 109.329 48.7064 109.329 48.7064L105.163 26.2058C105.163 26.2058 102.288 13.6875 96.309 9.15545C89.0469 3.65134 81.7437 3.94518 73.0937 6.81071C64.9184 9.519 56.4568 21.2864 56.4568 21.2864C56.4568 21.2864 54.3238 42.4056 52.957 55.9377C51.5903 69.4699 52.7716 104.745 60.1714 134.754Z" fill="#E4D7EC"/>
<path d="M60.1714 134.754C67.9991 166.499 92.8526 211.834 92.8526 211.834L107.419 213.305C107.419 213.305 116.067 160.841 116.142 126.944C116.209 96.2745 109.329 48.7064 109.329 48.7064L105.163 26.2058C105.163 26.2058 102.288 13.6875 96.309 9.15545C89.0469 3.65134 81.7437 3.94518 73.0937 6.81071C64.9184 9.519 56.4568 21.2864 56.4568 21.2864C56.4568 21.2864 54.3238 42.4056 52.957 55.9377C51.5903 69.4699 52.7716 104.745 60.1714 134.754Z" fill="#E4D7EC"/>
<path d="M60.1714 134.754C67.9991 166.499 92.8526 211.834 92.8526 211.834L107.419 213.305C107.419 213.305 116.067 160.841 116.142 126.944C116.209 96.2745 109.329 48.7064 109.329 48.7064L105.163 26.2058C105.163 26.2058 102.288 13.6875 96.309 9.15545C89.0469 3.65134 81.7437 3.94518 73.0937 6.81071C64.9184 9.519 56.4568 21.2864 56.4568 21.2864C56.4568 21.2864 54.3238 42.4056 52.957 55.9377C51.5903 69.4699 52.7716 104.745 60.1714 134.754Z" stroke="#E4D7EC"/>
<path d="M60.1714 134.754C67.9991 166.499 92.8526 211.834 92.8526 211.834L107.419 213.305C107.419 213.305 116.067 160.841 116.142 126.944C116.209 96.2745 109.329 48.7064 109.329 48.7064L105.163 26.2058C105.163 26.2058 102.288 13.6875 96.309 9.15545C89.0469 3.65134 81.7437 3.94518 73.0937 6.81071C64.9184 9.519 56.4568 21.2864 56.4568 21.2864C56.4568 21.2864 54.3238 42.4056 52.957 55.9377C51.5903 69.4699 52.7716 104.745 60.1714 134.754Z" stroke="#E4D7EC"/>
<path d="M60.1714 134.754C67.9991 166.499 92.8526 211.834 92.8526 211.834L107.419 213.305C107.419 213.305 116.067 160.841 116.142 126.944C116.209 96.2745 109.329 48.7064 109.329 48.7064L105.163 26.2058C105.163 26.2058 102.288 13.6875 96.309 9.15545C89.0469 3.65134 81.7437 3.94518 73.0937 6.81071C64.9184 9.519 56.4568 21.2864 56.4568 21.2864C56.4568 21.2864 54.3238 42.4056 52.957 55.9377C51.5903 69.4699 52.7716 104.745 60.1714 134.754Z" stroke="#E4D7EC"/>
<path d="M60.1714 134.754C67.9991 166.499 92.8526 211.834 92.8526 211.834L107.419 213.305C107.419 213.305 116.067 160.841 116.142 126.944C116.209 96.2745 109.329 48.7064 109.329 48.7064L105.163 26.2058C105.163 26.2058 102.288 13.6875 96.309 9.15545C89.0469 3.65134 81.7437 3.94518 73.0937 6.81071C64.9184 9.519 56.4568 21.2864 56.4568 21.2864C56.4568 21.2864 54.3238 42.4056 52.957 55.9377C51.5903 69.4699 52.7716 104.745 60.1714 134.754Z" stroke="#E4D7EC"/>
<path d="M272.688 130.759C262.742 164.19 245.366 185.586 231.912 213H220.791V121.91C220.791 121.91 216.762 77.6533 220.791 49.5588C222.491 37.7 222.228 30.7587 226.969 19.369C229.946 12.2184 236.854 1.67159 236.854 1.67159C236.854 1.67159 247.465 0.160508 253.741 1.67159C265.023 4.3877 266.938 10.6904 272.688 19.369C281.131 32.1122 281.144 42.9304 282.985 58.4075C286.352 86.7101 280.94 103.02 272.688 130.759Z" fill="#E4D7EC" stroke="#E4D7EC"/>
<ellipse cx="174" cy="374" rx="19" ry="8" fill="#DEA3A3"/>
<ellipse cx="278" cy="377" rx="69" ry="73" fill="#E4D7EC"/>
<ellipse cx="174.5" cy="397.5" rx="90.5" ry="62.5" fill="#F7F3FA"/>
<ellipse cx="177" cy="376" rx="19" ry="8" fill="#F7DBDB"/>
<path d="M169.388 390C168.515 387 169.388 382 169.388 382H183.888C183.888 382 184.761 387 183.888 390C183.13 392.605 182.71 394.597 180.388 396C177.881 397.514 175.395 397.514 172.888 396C170.566 394.597 170.146 392.605 169.388 390Z" fill="#F7DBDB" stroke="#F7DBDB"/>
<g filter="url(#filter0_d_19_76)">
<path d="M70.5 307L146.327 309.428C146.327 309.428 146.871 312.645 147.337 317.27H204.109C204.562 312.677 205.262 309.428 205.262 309.428H283.5C283.5 309.428 287.538 334.158 279.369 343.206C271.2 352.253 274.117 350.444 261.28 352.253C248.443 354.063 240.857 355.05 226.852 352.253C212.848 349.457 213.792 348.874 208.763 343.206C205.492 339.519 204.19 333.809 203.837 328.127H147.985C148.052 333.503 147.672 339.033 146.327 343.206C144.576 348.634 140.322 351.364 129.405 352.253C118.488 353.143 118.584 353.55 101 352.253C83.4158 350.957 82.9597 350.542 73.9707 346.825C59.3828 340.793 70.5 307 70.5 307Z" fill="#1E1E1E"/>
<path d="M204.109 317.27L203.758 322.698M207.013 322.698V317.27H146.327V322.698V328.127H207.013L209.93 319.079M70.5 307L146.327 309.428C146.327 309.428 150.074 331.586 146.327 343.206C144.576 348.634 140.322 351.364 129.405 352.253C118.488 353.143 118.584 353.55 101 352.253C83.4158 350.957 82.9597 350.542 73.9707 346.825C59.3828 340.793 70.5 307 70.5 307ZM205.262 309.428C205.262 309.428 200.089 333.429 208.763 343.206C213.792 348.874 212.848 349.457 226.852 352.253C240.857 355.05 248.443 354.063 261.28 352.253C274.117 350.444 271.2 352.253 279.369 343.206C287.538 334.158 283.5 309.428 283.5 309.428H205.262Z" stroke="#1E1E1E"/>
</g>
<g filter="url(#filter1_i_19_76)">
<path d="M232 140.5L226 190L238 193L244.5 175L257 140.5L268 86.5V58L264 45.5L250.5 40L238 45.5L232 58V91V140.5Z" fill="#F8C3C3"/>
</g>
<path d="M232 140.5L226 190L238 193L244.5 175L257 140.5L268 86.5V58L264 45.5L250.5 40L238 45.5L232 58V91V140.5Z" stroke="#D9D9D9" stroke-width="0.5"/>
<g filter="url(#filter2_i_19_76)">
<path d="M85.9411 167.222L101.364 198.622L108.244 195.185L104.669 165.9L102.402 138.583L102.944 108.337L101.221 80.6158L96.9576 58.1477L91.8601 48.9096L79.9209 47.7038L70.8672 52.7578L66.9569 66.5954L67.5163 85.9347L69.8746 112.342L75.9372 141.879L85.9411 167.222Z" fill="#F8C3C3"/>
</g>
<path d="M85.9411 167.222L101.364 198.622L108.244 195.185L104.669 165.9L102.402 138.583L102.944 108.337L101.221 80.6158L96.9576 58.1477L91.8601 48.9096L79.9209 47.7038L70.8672 52.7578L66.9569 66.5954L67.5163 85.9347L69.8746 112.342L75.9372 141.879L85.9411 167.222Z" stroke="#F7DBDB" stroke-width="0.5"/>
<defs>
<filter id="filter0_d_19_76" x="61.9465" y="306.488" width="227.052" height="56.0117" filterUnits="userSpaceOnUse" color-interpolation-filters="sRGB">
<feFlood flood-opacity="0" result="BackgroundImageFix"/>
<feColorMatrix in="SourceAlpha" type="matrix" values="0 0 0 0 0 0 0 0 0 0 0 0 0 0 0 0 0 0 127 0" result="hardAlpha"/>
<feOffset dy="4"/>
<feGaussianBlur stdDeviation="2"/>
<feComposite in2="hardAlpha" operator="out"/>
<feColorMatrix type="matrix" values="0 0 0 0 0 0 0 0 0 0 0 0 0 0 0 0 0 0 0.25 0"/>
<feBlend mode="normal" in2="BackgroundImageFix" result="effect1_dropShadow_19_76"/>
<feBlend mode="normal" in="SourceGraphic" in2="effect1_dropShadow_19_76" result="shape"/>
</filter>
<filter id="filter1_i_19_76" x="225.725" y="39.7285" width="42.5248" height="157.569" filterUnits="userSpaceOnUse" color-interpolation-filters="sRGB">
<feFlood flood-opacity="0" result="BackgroundImageFix"/>
<feBlend mode="normal" in="SourceGraphic" in2="BackgroundImageFix" result="shape"/>
<feColorMatrix in="SourceAlpha" type="matrix" values="0 0 0 0 0 0 0 0 0 0 0 0 0 0 0 0 0 0 127 0" result="hardAlpha"/>
<feOffset dy="4"/>
<feGaussianBlur stdDeviation="2"/>
<feComposite in2="hardAlpha" operator="arithmetic" k2="-1" k3="1"/>
<feColorMatrix type="matrix" values="0 0 0 0 0 0 0 0 0 0 0 0 0 0 0 0 0 0 0.25 0"/>
<feBlend mode="normal" in2="shape" result="effect1_innerShadow_19_76"/>
</filter>
<filter id="filter2_i_19_76" x="66.7058" y="47.4471" width="41.8077" height="155.511" filterUnits="userSpaceOnUse" color-interpolation-filters="sRGB">
<feFlood flood-opacity="0" result="BackgroundImageFix"/>
<feBlend mode="normal" in="SourceGraphic" in2="BackgroundImageFix" result="shape"/>
<feColorMatrix in="SourceAlpha" type="matrix" values="0 0 0 0 0 0 0 0 0 0 0 0 0 0 0 0 0 0 127 0" result="hardAlpha"/>
<feOffset dy="4"/>
<feGaussianBlur stdDeviation="2"/>
<feComposite in2="hardAlpha" operator="arithmetic" k2="-1" k3="1"/>
<feColorMatrix type="matrix" values="0 0 0 0 0 0 0 0 0 0 0 0 0 0 0 0 0 0 0.25 0"/>
<feBlend mode="normal" in2="shape" result="effect1_innerShadow_19_76"/>
</filter>
</defs>
</svg>
